<svg xmlns="http://www.w3.org/2000/svg" viewBox="0 0 640 200" role="img" aria-labelledby="title desc">
  <title id="title">Concept 1 - Margin Fold</title>
  <desc id="desc">Three ascending folded tiles beside the Faida wordmark.</desc>
  <rect width="640" height="200" rx="24" fill="#FBF6EC"/>
  <g transform="translate(42 52)">
    <path fill="#153E35" d="M8 61c0-8 4-14 11-18l27-16v30L20 72c-6 4-12 0-12-7z"/>
    <path fill="#E3A13B" d="M37 47c0-8 4-14 11-18l26-15v30L48 59c-6 4-11 0-11-7z"/>
    <path fill="#153E35" d="M66 32c0-8 4-14 11-18L104 0v70L78 85c-6 4-12 0-12-7z"/>
  </g>
  <text x="190" y="133" fill="#172421" font-family="Avenir Next, Manrope, Inter, Arial, sans-serif" font-size="96" font-weight="600" letter-spacing="-4">faida</text>
</svg>
