<svg xmlns="http://www.w3.org/2000/svg" viewBox="0 0 620 720" role="img" aria-label="Tax invoice INV-7731 from Al Seeb Trading Co LLC">
  <defs>
    <filter id="smudge-blur" x="-40%" y="-40%" width="180%" height="180%">
      <feGaussianBlur stdDeviation="2.6"/>
    </filter>
  </defs>
  <rect width="620" height="720" fill="#fffcf5"/>
  <rect x="0.5" y="0.5" width="619" height="719" fill="none" stroke="#e2ddd0"/>
  <g font-family="Helvetica, Arial, sans-serif" fill="#20261f">
    <text x="40" y="58" font-size="21" font-weight="bold" letter-spacing="0.5">AL SEEB TRADING CO LLC</text>
    <text x="40" y="80" font-size="12" fill="#4c534e">Karama, Dubai, UAE &#183; Tel 04 397 6650</text>
    <text x="40" y="97" font-size="12" fill="#4c534e">TRN 100876554300003</text>

    <text x="310" y="138" font-size="15" font-weight="bold" letter-spacing="3" text-anchor="middle">TAX INVOICE</text>
    <line x1="240" y1="146" x2="380" y2="146" stroke="#20261f" stroke-width="1"/>

    <text x="40" y="176" font-size="13">Invoice No: <tspan font-weight="bold">INV-7731</tspan></text>
    <text x="40" y="196" font-size="13">Date: 22/08/2026</text>
    <text x="420" y="176" font-size="13">Payment: CREDIT</text>
    <text x="420" y="196" font-size="13">Customer: Karak House</text>

    <line x1="40" y1="222" x2="580" y2="222" stroke="#20261f" stroke-width="1.2"/>
    <g font-size="11.5" font-weight="bold" fill="#3a413d">
      <text x="46" y="242">SL</text>
      <text x="80" y="242">DESCRIPTION</text>
      <text x="388" y="242" text-anchor="end">QTY</text>
      <text x="470" y="242" text-anchor="end">RATE</text>
      <text x="574" y="242" text-anchor="end">AMOUNT</text>
    </g>
    <line x1="40" y1="252" x2="580" y2="252" stroke="#20261f" stroke-width="0.8"/>

    <g font-size="13">
      <text x="46" y="278">1</text>
      <text x="80" y="278">Chapati Flour 25kg</text>
      <text x="388" y="278" text-anchor="end">2</text>
      <text x="470" y="278" text-anchor="end">38.00</text>
      <text x="574" y="278" text-anchor="end">76.00</text>

      <text x="46" y="310">2</text>
      <text x="80" y="310">Evaporated Milk 410ml</text>
      <text x="388" y="310" text-anchor="end">12</text>
      <text x="470" y="310" text-anchor="end">4.50</text>
      <text x="574" y="310" text-anchor="end">58.00</text>

      <text x="46" y="342">3</text>
      <text x="80" y="342">Sugar 10kg</text>
      <text x="388" y="342" text-anchor="end">2</text>
      <text x="470" y="342" text-anchor="end">42.00</text>
      <text x="574" y="342" text-anchor="end">84.00</text>

      <text x="46" y="374">4</text>
      <text x="80" y="374">Saffron Threads 1g</text>
      <text x="388" y="374" text-anchor="end">1</text>
      <text x="470" y="374" text-anchor="end">52.25</text>
      <text x="574" y="374" text-anchor="end">52.25</text>
    </g>

    <!-- ink smudge over the qty of line 3: the unreadable cell -->
    <ellipse cx="381" cy="337" rx="17" ry="10" fill="#8f8677" opacity="0.9" filter="url(#smudge-blur)"/>
    <ellipse cx="374" cy="342" rx="9" ry="6" fill="#7c7466" opacity="0.75" filter="url(#smudge-blur)"/>

    <line x1="40" y1="398" x2="580" y2="398" stroke="#20261f" stroke-width="0.8"/>

    <g font-size="13">
      <text x="470" y="428" text-anchor="end">SUBTOTAL</text>
      <text x="574" y="428" text-anchor="end">270.25</text>
      <text x="470" y="454" text-anchor="end">VAT 5%</text>
      <text x="574" y="454" text-anchor="end">13.51</text>
    </g>
    <line x1="380" y1="468" x2="580" y2="468" stroke="#20261f" stroke-width="0.8"/>
    <text x="470" y="494" font-size="15" font-weight="bold" text-anchor="end">TOTAL AED</text>
    <text x="574" y="494" font-size="15" font-weight="bold" text-anchor="end">283.76</text>
    <line x1="380" y1="508" x2="580" y2="508" stroke="#20261f" stroke-width="1.4"/>

    <text x="40" y="600" font-size="12" fill="#4c534e">Received the above goods in good condition.</text>
    <path d="M60 652 q14 -22 30 -4 q14 14 24 -10 q8 -12 22 4" fill="none" stroke="#2c3a63" stroke-width="1.6" stroke-linecap="round"/>
    <text x="40" y="678" font-size="11" fill="#4c534e">Receiver signature</text>
    <text x="420" y="678" font-size="11" fill="#4c534e">Salesman: S. Aboobacker</text>
  </g>
</svg>
