<svg xmlns="http://www.w3.org/2000/svg" viewBox="0 0 620 800" role="img" aria-label="Tax invoice INV-10517 from Al Madina Foodstuff Trdg LLC">
  <rect width="620" height="800" fill="#fffdf7"/>
  <rect x="0.5" y="0.5" width="619" height="799" fill="none" stroke="#e2ddd0"/>
  <g font-family="Helvetica, Arial, sans-serif" fill="#1d2320">
    <text x="40" y="58" font-size="21" font-weight="bold" letter-spacing="0.5">AL MADINA FOODSTUFF TRDG LLC</text>
    <text x="40" y="80" font-size="12" fill="#4c534e">Al Quoz Industrial Area 3, Dubai, UAE &#183; Tel 04 338 2214</text>
    <text x="40" y="97" font-size="12" fill="#4c534e">TRN 100234567800003</text>

    <text x="310" y="140" font-size="15" font-weight="bold" letter-spacing="3" text-anchor="middle">TAX INVOICE</text>
    <line x1="240" y1="148" x2="380" y2="148" stroke="#1d2320" stroke-width="1"/>

    <text x="40" y="180" font-size="13">Invoice No: <tspan font-weight="bold">INV-10517</tspan></text>
    <text x="40" y="200" font-size="13">Date: 02/09/2026</text>
    <text x="420" y="180" font-size="13">Payment: CREDIT</text>
    <text x="420" y="200" font-size="13">Customer: Karak House</text>

    <line x1="40" y1="228" x2="580" y2="228" stroke="#1d2320" stroke-width="1.2"/>
    <g font-size="11.5" font-weight="bold" fill="#3a413d">
      <text x="46" y="248">SL</text>
      <text x="80" y="248">DESCRIPTION</text>
      <text x="388" y="248" text-anchor="end">QTY</text>
      <text x="470" y="248" text-anchor="end">RATE</text>
      <text x="574" y="248" text-anchor="end">AMOUNT</text>
    </g>
    <line x1="40" y1="258" x2="580" y2="258" stroke="#1d2320" stroke-width="0.8"/>

    <g font-size="13">
      <text x="46" y="284">1</text>
      <text x="80" y="284">Rainbow Milk Powder 2.25kg</text>
      <text x="388" y="284" text-anchor="end">4</text>
      <text x="470" y="284" text-anchor="end">54.50</text>
      <text x="574" y="284" text-anchor="end">218.00</text>

      <text x="46" y="316">2</text>
      <text x="80" y="316">Karak Tea Dust 5kg</text>
      <text x="388" y="316" text-anchor="end">3</text>
      <text x="470" y="316" text-anchor="end">49.00</text>
      <text x="574" y="316" text-anchor="end">147.00</text>

    </g>

    <line x1="40" y1="340" x2="580" y2="436" stroke="#1d2320" stroke-width="0.8"/>

    <g font-size="13">
      <text x="470" y="370" text-anchor="end">SUBTOTAL</text>
      <text x="574" y="370" text-anchor="end">365.00</text>
      <text x="470" y="396" text-anchor="end">VAT 5%</text>
      <text x="574" y="396" text-anchor="end">18.25</text>
    </g>
    <line x1="380" y1="410" x2="580" y2="410" stroke="#1d2320" stroke-width="0.8"/>
    <text x="470" y="436" font-size="15" font-weight="bold" text-anchor="end">TOTAL AED</text>
    <text x="574" y="436" font-size="15" font-weight="bold" text-anchor="end">383.25</text>
    <line x1="380" y1="450" x2="580" y2="450" stroke="#1d2320" stroke-width="1.4"/>

    <text x="40" y="640" font-size="12" fill="#4c534e">Received the above goods in good condition.</text>
    <path d="M60 700 q18 -26 34 -6 q12 16 26 -8 q10 -14 24 2" fill="none" stroke="#2c3a63" stroke-width="1.6" stroke-linecap="round"/>
    <text x="40" y="726" font-size="11" fill="#4c534e">Receiver signature</text>
    <text x="420" y="726" font-size="11" fill="#4c534e">Salesman: R. Kumar</text>
  </g>
</svg>
